<?xml version="1.0"?>
<svg width="2250" height="1650" xmlns="http://www.w3.org/2000/svg">

 <g>
  <title>background</title>
  <rect fill="#aaffff" id="canvas_background" height="1652" width="2252" y="-1" x="-1"/>
 </g>
 <g>
  <title>Layer 1</title>
  <g fill="#ffffff" id="layer102">
   <path stroke="null" id="svg_2" d="m1176.268555,1414.926514c-129.703491,-129.512939 -234.492981,-234.302734 -232.781433,-232.781372c4.564453,4.184082 6.085876,3.233276 1.711731,-1.140991c-2.09198,-2.091919 -4.56427,-3.803467 -5.325012,-3.803467c-0.760803,0 -6.085815,-4.754639 -11.791443,-10.650146c-5.7052,-5.895752 -13.122192,-11.79126 -16.545654,-13.312744c-5.134888,-2.282104 -43.171021,-2.662598 -229.928772,-2.662598l-223.652588,0l-7.416962,-7.41687l-7.417023,-7.416992l0,-84.820923c0,-69.796326 0.570404,-85.96167 2.662567,-90.145691c4.374146,-8.177734 18.828003,-21.110046 25.86441,-23.202026c7.226868,-2.09198 1499.195618,-2.852722 1510.225891,-0.76062c5.325439,1.140991 19.398438,14.073242 78.35498,72.839172c39.557373,39.36731 73.219482,73.790283 74.740967,76.643066c2.281982,4.374023 2.662109,46.403809 2.662109,284.890625l0,279.565796l-362.674805,0l-362.864624,0l-235.824341,-235.824219z"/>
   <path stroke="null" id="svg_3" d="m872.930176,1411.123047c-172.874634,-0.950928 -184.095215,-1.140991 -188.849609,-4.374268c-3.042847,-1.901855 -7.036865,-6.085693 -8.938538,-9.509033c-3.613464,-5.895508 -3.803772,-10.269775 -3.803772,-104.028687c0,-94.900513 0.190308,-98.133423 3.803772,-104.219238c7.226807,-11.791138 6.465942,-11.791138 118.292542,-11.791138c75.882141,0.190063 102.317322,0.760742 105.55011,2.47229c5.705627,3.233154 5.13501,2.662598 126.090271,123.807617l109.353882,109.544189l-38.987061,-0.380493c-21.490479,-0.380127 -121.525574,-0.950684 -222.511597,-1.52124z"/>
   <path stroke="null" id="svg_4" d="m0,938.143311l0,-103.26825l138.071289,0c98.323441,0 139.212463,-0.570618 142.065186,-2.092102c3.232971,-1.711609 35.753906,-31.379883 45.262756,-41.459412c0.57074,-0.570618 40.889008,-41.079041 89.385162,-90.145691l88.244019,-88.814514l9.128571,0c10.07959,0 20.349243,4.374207 20.349243,8.368042c0,1.521362 4.184204,5.89563 9.318909,9.699097c12.361694,8.93866 51.348999,49.827515 52.680298,54.962341c0.380249,2.09198 0.570374,37.085327 0.380249,77.593872l-0.57074,73.599915l-10.459839,10.650085c-6.275818,6.27594 -13.122253,11.220703 -17.116333,12.361938c-3.61322,0.950745 -20.539368,1.901672 -37.655701,1.901672c-18.827789,0 -32.710938,0.760742 -35.183533,2.092041c-2.281982,1.140991 -43.361115,41.079041 -91.286713,89.004639l-86.912598,86.722473l-157.850235,0.950806l-157.849991,0.95105l0,-103.078003z"/>
   <path stroke="null" id="svg_5" d="m733.147095,884.32196c-2.09198,-0.760681 -7.987366,-5.895508 -13.312683,-11.22052l-9.509155,-9.889648l-0.570251,-22.821533c-0.380432,-12.742126 -0.190186,-25.294006 0.570251,-27.956604c0.760925,-2.852661 11.220886,-15.214478 23.772888,-27.956726c12.361755,-12.551819 23.582275,-25.294006 24.533142,-28.146729c1.331299,-3.613403 2.092102,-41.839661 2.092102,-113.728027c0,-117.722046 0.190186,-115.439819 -10.650269,-125.709534c-7.41687,-6.846558 -23.392151,-9.509125 -56.863831,-9.318848c-14.644226,0 -107.072021,-0.380524 -205.395294,-0.950989c-191.702393,-1.331146 -185.996948,-0.950867 -191.512268,-10.84021c-1.331268,-2.282227 -2.852692,-13.883209 -3.423096,-26.244904c-1.141174,-24.533478 -3.233185,-29.668335 -13.883331,-35.37384c-5.515259,-3.042786 -13.312561,-3.423187 -76.262573,-3.993622c-78.354431,-0.570557 -75.882149,-0.190308 -83.489288,-14.453888l-3.993858,-7.797424l0.38044,-195.505783c0.570412,-213.953464 -0.1903,-200.070287 11.41069,-207.867637c4.944733,-3.233071 22.06102,-3.613428 333.006836,-4.184003c266.443298,-0.760713 327.491333,-0.380357 326.350342,1.711604c-1.141174,1.711686 -0.570557,1.901864 2.09198,0.760754c3.613403,-1.521426 480.396606,-2.662577 478.875244,-0.950932c-0.570679,0.380357 24.153076,25.864613 54.771851,56.483698l55.723145,55.723045l0.95105,79.115189l0.950806,79.115158l4.564331,3.613495c6.466309,5.325073 33.852295,5.325073 40.318359,0l4.564209,-3.613495l0.951172,-128.752396l0.950806,-128.752408l7.036621,-6.466103l7.226807,-6.466184l399.379761,0l399.380249,0l0,138.832003l0,138.832077l-106.88208,0c-81.777832,0 -108.212891,0.570465 -111.826294,2.47229c-2.472412,1.331268 -6.656494,5.325073 -8.938477,8.748352l-4.374023,6.466125l0,82.918854c0,62.569458 0.570313,84.059784 2.472046,87.67334c1.331543,2.472412 5.325073,6.65625 8.748535,8.938568c6.275879,4.18399 7.797241,4.374115 50.96875,4.374115c48.305664,0 51.348633,0.570587 59.335938,10.650146c3.993652,5.134857 3.993652,5.324982 3.993652,190.751312c0,144.727722 -0.570068,186.567444 -2.471924,190.371094c-1.331543,2.472473 -5.325195,6.656372 -8.748535,8.938599l-6.466064,4.374084l-111.065674,0c-96.041138,0 -112.016235,-0.380371 -117.341431,-2.852783c-4.754761,-2.282166 -47.925659,-44.88269 -94.900024,-93.56897c-1.331665,-1.331299 -7.797729,-7.226929 -14.454102,-13.312561c-6.656494,-6.085938 -14.644043,-14.453796 -17.496582,-18.447693l-5.515259,-7.417053l0,-60.667542c0,-67.324036 -0.570679,-70.55719 -11.791382,-77.593933c-5.515015,-3.423218 -8.748413,-3.993835 -25.674194,-3.423218l-19.588867,0.570557l-11.791138,11.791199l-11.981445,11.981323l25.294067,25.294189l25.104126,25.103699l-18.637817,18.637878c-10.07959,10.07959 -19.398438,18.44751 -20.539673,18.44751c-1.331055,0 -12.932007,-11.030518 -25.864258,-24.533386l-23.772705,-24.533386l-104.409302,104.599548c-59.526733,59.71698 -107.071777,105.740601 -110.495239,107.262024c-5.134766,2.282227 -58.766113,2.662598 -347.07959,2.472412c-187.518616,0 -342.706177,-0.76062 -344.798218,-1.711731z"/>
   <path stroke="null" id="svg_6" d="m240.769028,806.538086c-10.269867,-6.846558 -10.460007,-8.558105 -10.650146,-60.85791l0,-48.30603l22.061005,-22.441223c12.171402,-12.361816 24.343002,-23.392273 27.195724,-24.343079c3.233124,-1.521606 28.146851,-1.901917 75.691895,-1.711792l70.747498,0.570618l-58.765869,58.955994c-110.685394,111.25592 -98.894257,100.415405 -110.495117,101.176331c-7.987549,0.570557 -11.601151,0 -15.784988,-3.042908z"/>
   <path stroke="null" id="svg_7" d="m586.327576,590.112244c-6.846619,-1.331177 -8.367981,-5.325012 -9.508972,-23.772522c-0.950928,-15.785034 -0.570618,-18.257507 2.852478,-22.441528c3.613586,-4.564209 4.754761,-4.754456 23.202148,-4.564209c12.171814,0 19.968872,0.950806 21.490479,2.47229c1.331482,1.331299 2.47229,9.699219 2.852539,21.110107c0.57074,16.926025 0.380615,19.018188 -3.232788,22.631531c-3.233215,3.233154 -6.276001,3.993713 -16.165527,3.993713c-6.65625,0 -13.3125,0.380493 -14.834229,0.760742c-1.330994,0.380432 -4.374146,0.190308 -6.656128,-0.190125z"/>
  </g>
 </g>
</svg>